<svg xmlns="http://www.w3.org/2000/svg" xmlns:xlink="http://www.w3.org/1999/xlink" width="1250" zoomAndPan="magnify" viewBox="0 0 937.5 937.499976" height="1250" preserveAspectRatio="xMidYMid meet" version="1.0"><defs><g/><clipPath id="f40db160cb"><rect x="0" width="639" y="0" height="200"/></clipPath><clipPath id="441a950883"><rect x="0" width="588" y="0" height="105"/></clipPath><clipPath id="dd6f07bae6"><path d="M 750.308594 314.660156 L 812.523438 314.660156 L 812.523438 370 L 750.308594 370 Z M 750.308594 314.660156 " clip-rule="nonzero"/></clipPath></defs><g transform="matrix(1, 0, 0, 1, 131, 320)"><g clip-path="url(#f40db160cb)"><g fill="#ffffff" fill-opacity="1"><g transform="translate(0.649487, 160.365892)"><g><path d="M 56.484375 2.65625 C 46.210938 2.65625 37.019531 1.023438 28.90625 -2.234375 C 20.789062 -5.492188 14.359375 -10.242188 9.609375 -16.484375 C 4.859375 -22.722656 2.484375 -30.203125 2.484375 -38.921875 L 32.296875 -38.921875 C 32.296875 -34.734375 33.398438 -31.367188 35.609375 -28.828125 C 37.816406 -26.285156 40.742188 -24.460938 44.390625 -23.359375 C 48.035156 -22.253906 52.066406 -21.703125 56.484375 -21.703125 C 62.003906 -21.703125 66.226562 -22.664062 69.15625 -24.59375 C 72.082031 -26.53125 73.546875 -28.988281 73.546875 -31.96875 C 73.546875 -35.175781 72.25 -37.660156 69.65625 -39.421875 C 67.0625 -41.191406 63.554688 -42.738281 59.140625 -44.0625 C 54.722656 -45.382812 49.695312 -46.875 44.0625 -48.53125 C 37.320312 -50.519531 31.023438 -52.953125 25.171875 -55.828125 C 19.328125 -58.703125 14.632812 -62.484375 11.09375 -67.171875 C 7.5625 -71.867188 5.796875 -77.859375 5.796875 -85.140625 C 5.796875 -93.753906 7.835938 -100.710938 11.921875 -106.015625 C 16.015625 -111.316406 21.507812 -115.15625 28.40625 -117.53125 C 35.3125 -119.90625 43.015625 -121.09375 51.515625 -121.09375 C 60.796875 -121.09375 69.160156 -119.546875 76.609375 -116.453125 C 84.066406 -113.359375 90.054688 -108.941406 94.578125 -103.203125 C 99.109375 -97.460938 101.488281 -90.5625 101.71875 -82.5 L 71.890625 -82.5 C 71.234375 -87.019531 69.109375 -90.523438 65.515625 -93.015625 C 61.929688 -95.503906 57.265625 -96.75 51.515625 -96.75 C 47.097656 -96.75 43.34375 -96 40.25 -94.5 C 37.15625 -93.007812 35.609375 -90.609375 35.609375 -87.296875 C 35.609375 -83.648438 37.484375 -80.972656 41.234375 -79.265625 C 44.992188 -77.554688 50.578125 -75.648438 57.984375 -73.546875 C 63.609375 -72.003906 69.097656 -70.289062 74.453125 -68.40625 C 79.816406 -66.53125 84.675781 -64.1875 89.03125 -61.375 C 93.394531 -58.5625 96.875 -55 99.46875 -50.6875 C 102.070312 -46.382812 103.375 -41.082031 103.375 -34.78125 C 103.375 -23.40625 99.257812 -14.320312 91.03125 -7.53125 C 82.800781 -0.738281 71.285156 2.65625 56.484375 2.65625 Z M 56.484375 2.65625 "/></g></g></g><g fill="#ffffff" fill-opacity="1"><g transform="translate(108.655344, 160.365892)"><g><path d="M 46.390625 2.65625 C 37.441406 2.65625 29.707031 0.746094 23.1875 -3.0625 C 16.675781 -6.875 11.625 -12.175781 8.03125 -18.96875 C 4.445312 -25.757812 2.65625 -33.570312 2.65625 -42.40625 C 2.65625 -51.238281 4.421875 -59.023438 7.953125 -65.765625 C 11.484375 -72.503906 16.476562 -77.804688 22.9375 -81.671875 C 29.40625 -85.535156 37 -87.46875 45.71875 -87.46875 C 54 -87.46875 61.09375 -85.972656 67 -82.984375 C 72.914062 -80.003906 77.613281 -75.945312 81.09375 -70.8125 C 84.570312 -65.675781 86.640625 -59.796875 87.296875 -53.171875 L 61.296875 -53.171875 C 61.078125 -55.492188 60.441406 -57.757812 59.390625 -59.96875 C 58.335938 -62.175781 56.757812 -64 54.65625 -65.4375 C 52.5625 -66.875 49.75 -67.59375 46.21875 -67.59375 C 40.800781 -67.59375 36.601562 -65.378906 33.625 -60.953125 C 30.644531 -56.535156 29.15625 -50.351562 29.15625 -42.40625 C 29.15625 -34.457031 30.617188 -28.273438 33.546875 -23.859375 C 36.472656 -19.441406 40.695312 -17.234375 46.21875 -17.234375 C 51.519531 -17.234375 55.242188 -18.75 57.390625 -21.78125 C 59.546875 -24.820312 60.847656 -28.21875 61.296875 -31.96875 L 87.296875 -31.96875 C 86.859375 -25.34375 84.925781 -19.40625 81.5 -14.15625 C 78.082031 -8.914062 73.414062 -4.800781 67.5 -1.8125 C 61.59375 1.164062 54.554688 2.65625 46.390625 2.65625 Z M 46.390625 2.65625 "/></g></g></g><g fill="#ffffff" fill-opacity="1"><g transform="translate(198.10802, 160.365892)"><g><path d="M 48.046875 2.65625 C 38.648438 2.65625 30.554688 0.722656 23.765625 -3.140625 C 16.972656 -7.015625 11.753906 -12.347656 8.109375 -19.140625 C 4.472656 -25.929688 2.65625 -33.6875 2.65625 -42.40625 C 2.65625 -51.238281 4.472656 -59.023438 8.109375 -65.765625 C 11.753906 -72.503906 16.972656 -77.804688 23.765625 -81.671875 C 30.554688 -85.535156 38.648438 -87.46875 48.046875 -87.46875 C 57.429688 -87.46875 65.488281 -85.535156 72.21875 -81.671875 C 78.957031 -77.804688 84.148438 -72.503906 87.796875 -65.765625 C 91.441406 -59.023438 93.265625 -51.238281 93.265625 -42.40625 C 93.265625 -33.6875 91.441406 -25.929688 87.796875 -19.140625 C 84.148438 -12.347656 78.957031 -7.015625 72.21875 -3.140625 C 65.488281 0.722656 57.429688 2.65625 48.046875 2.65625 Z M 48.046875 -17.234375 C 53.890625 -17.234375 58.46875 -19.382812 61.78125 -23.6875 C 65.101562 -28 66.765625 -34.238281 66.765625 -42.40625 C 66.765625 -50.582031 65.101562 -56.820312 61.78125 -61.125 C 58.46875 -65.4375 53.890625 -67.59375 48.046875 -67.59375 C 42.191406 -67.59375 37.578125 -65.4375 34.203125 -61.125 C 30.835938 -56.820312 29.15625 -50.582031 29.15625 -42.40625 C 29.15625 -34.238281 30.835938 -28 34.203125 -23.6875 C 37.578125 -19.382812 42.191406 -17.234375 48.046875 -17.234375 Z M 48.046875 -17.234375 "/></g></g></g><g fill="#ffffff" fill-opacity="1"><g transform="translate(294.021143, 160.365892)"><g><path d="M 6.453125 0 L 6.453125 -84.8125 L 32.96875 -84.8125 L 32.96875 -70.90625 L 33.296875 -70.90625 C 35.390625 -75.65625 38.203125 -79.410156 41.734375 -82.171875 C 45.273438 -84.929688 49.363281 -86.3125 54 -86.3125 C 55.21875 -86.3125 56.378906 -86.28125 57.484375 -86.21875 C 58.585938 -86.164062 59.859375 -85.972656 61.296875 -85.640625 L 61.296875 -62.453125 L 60.96875 -62.453125 C 56.4375 -63.335938 52.015625 -63.0625 47.703125 -61.625 C 43.398438 -60.1875 39.867188 -57.644531 37.109375 -54 C 34.347656 -50.351562 32.96875 -45.492188 32.96875 -39.421875 L 32.96875 0 Z M 6.453125 0 "/></g></g></g><g fill="#ffffff" fill-opacity="1"><g transform="translate(355.809703, 160.365892)"><g><path d="M 47.875 2.65625 C 38.488281 2.65625 30.425781 0.746094 23.6875 -3.0625 C 16.945312 -6.875 11.753906 -12.175781 8.109375 -18.96875 C 4.472656 -25.757812 2.65625 -33.570312 2.65625 -42.40625 C 2.65625 -51.019531 4.421875 -58.722656 7.953125 -65.515625 C 11.484375 -72.304688 16.535156 -77.660156 23.109375 -81.578125 C 29.679688 -85.503906 37.441406 -87.46875 46.390625 -87.46875 C 56.109375 -87.46875 64.195312 -85.285156 70.65625 -80.921875 C 77.113281 -76.554688 81.96875 -70.453125 85.21875 -62.609375 C 88.476562 -54.773438 90.109375 -45.722656 90.109375 -35.453125 L 29.15625 -35.453125 C 29.15625 -29.484375 31.003906 -24.953125 34.703125 -21.859375 C 38.398438 -18.773438 42.625 -17.234375 47.375 -17.234375 C 51.90625 -17.234375 55.359375 -18.113281 57.734375 -19.875 C 60.109375 -21.644531 61.679688 -23.578125 62.453125 -25.671875 L 88.796875 -25.671875 C 86.472656 -17.171875 81.941406 -10.320312 75.203125 -5.125 C 68.472656 0.0585938 59.363281 2.65625 47.875 2.65625 Z M 29.15625 -51.515625 L 63.609375 -51.515625 C 63.609375 -57.367188 62.003906 -61.785156 58.796875 -64.765625 C 55.597656 -67.753906 51.460938 -69.25 46.390625 -69.25 C 41.304688 -69.25 37.160156 -67.753906 33.953125 -64.765625 C 30.753906 -61.785156 29.15625 -57.367188 29.15625 -51.515625 Z M 29.15625 -51.515625 "/></g></g></g><g fill="#ffffff" fill-opacity="1"><g transform="translate(448.575441, 160.365892)"><g/></g></g><g fill="#ffffff" fill-opacity="1"><g transform="translate(476.736452, 160.365892)"><g><path d="M -0.171875 0 L 42.734375 -118.4375 L 72.5625 -118.4375 L 115.296875 0 L 85.484375 0 L 77.859375 -24.6875 L 37.265625 -24.6875 L 29.65625 0 Z M 44.0625 -47.375 L 71.234375 -47.375 L 57.8125 -91.109375 L 57.484375 -91.109375 Z M 44.0625 -47.375 "/></g></g></g><g fill="#ffffff" fill-opacity="1"><g transform="translate(592.196663, 160.365892)"><g><path d="M 8.28125 0 L 8.28125 -118.4375 L 38.09375 -118.4375 L 38.09375 0 Z M 8.28125 0 "/></g></g></g></g></g><g transform="matrix(1, 0, 0, 1, 140, 513)"><g clip-path="url(#441a950883)"><g fill="#ffffff" fill-opacity="1"><g transform="translate(0.736498, 85.029549)"><g><path d="M 24.34375 -71.234375 C 23.132812 -71.234375 22.210938 -71.609375 21.578125 -72.359375 C 20.953125 -73.109375 20.640625 -73.972656 20.640625 -74.953125 C 20.640625 -75.929688 20.953125 -76.789062 21.578125 -77.53125 C 22.210938 -78.28125 23.132812 -78.65625 24.34375 -78.65625 C 25.550781 -78.65625 26.484375 -78.28125 27.140625 -77.53125 C 27.804688 -76.789062 28.140625 -75.929688 28.140625 -74.953125 C 28.140625 -73.972656 27.804688 -73.109375 27.140625 -72.359375 C 26.484375 -71.609375 25.550781 -71.234375 24.34375 -71.234375 Z M 39.03125 -71.234375 C 37.820312 -71.234375 36.898438 -71.609375 36.265625 -72.359375 C 35.628906 -73.109375 35.3125 -73.972656 35.3125 -74.953125 C 35.3125 -75.929688 35.628906 -76.789062 36.265625 -77.53125 C 36.898438 -78.28125 37.820312 -78.65625 39.03125 -78.65625 C 40.238281 -78.65625 41.171875 -78.28125 41.828125 -77.53125 C 42.492188 -76.789062 42.828125 -75.929688 42.828125 -74.953125 C 42.828125 -73.972656 42.492188 -73.109375 41.828125 -72.359375 C 41.171875 -71.609375 40.238281 -71.234375 39.03125 -71.234375 Z M 31.78125 1.03125 C 25.90625 1.03125 20.804688 -0.332031 16.484375 -3.0625 C 12.171875 -5.800781 8.816406 -9.570312 6.421875 -14.375 C 4.035156 -19.1875 2.84375 -24.695312 2.84375 -30.90625 C 2.84375 -37.125 4.035156 -42.617188 6.421875 -47.390625 C 8.816406 -52.171875 12.171875 -55.925781 16.484375 -58.65625 C 20.804688 -61.394531 25.90625 -62.765625 31.78125 -62.765625 C 37.644531 -62.765625 42.75 -61.394531 47.09375 -58.65625 C 51.445312 -55.925781 54.800781 -52.171875 57.15625 -47.390625 C 59.519531 -42.617188 60.703125 -37.125 60.703125 -30.90625 C 60.703125 -24.695312 59.519531 -19.1875 57.15625 -14.375 C 54.800781 -9.570312 51.445312 -5.800781 47.09375 -3.0625 C 42.75 -0.332031 37.644531 1.03125 31.78125 1.03125 Z M 31.78125 -3.96875 C 36.382812 -3.96875 40.394531 -5.101562 43.8125 -7.375 C 47.238281 -9.65625 49.914062 -12.820312 51.84375 -16.875 C 53.769531 -20.9375 54.734375 -25.613281 54.734375 -30.90625 C 54.734375 -36.207031 53.769531 -40.882812 51.84375 -44.9375 C 49.914062 -49 47.238281 -52.164062 43.8125 -54.4375 C 40.394531 -56.707031 36.382812 -57.84375 31.78125 -57.84375 C 27.226562 -57.84375 23.222656 -56.707031 19.765625 -54.4375 C 16.316406 -52.164062 13.628906 -49 11.703125 -44.9375 C 9.773438 -40.882812 8.8125 -36.207031 8.8125 -30.90625 C 8.8125 -25.613281 9.773438 -20.9375 11.703125 -16.875 C 13.628906 -12.820312 16.316406 -9.65625 19.765625 -7.375 C 23.222656 -5.101562 27.226562 -3.96875 31.78125 -3.96875 Z M 31.78125 -3.96875 "/></g></g></g><g fill="#ffffff" fill-opacity="1"><g transform="translate(64.285946, 85.029549)"><g><path d="M 4.484375 0 L 4.484375 -61.734375 L 9.921875 -61.734375 L 9.921875 0 Z M 4.484375 0 "/></g></g></g><g fill="#ffffff" fill-opacity="1"><g transform="translate(78.705455, 85.029549)"><g><path d="M 20.125 15.96875 C 18.507812 15.96875 16.96875 15.765625 15.5 15.359375 C 14.03125 14.960938 12.71875 14.421875 11.5625 13.734375 L 12.859375 11.828125 C 14.929688 12.921875 17.148438 13.46875 19.515625 13.46875 C 21.066406 13.46875 22.359375 13.179688 23.390625 12.609375 C 24.429688 12.035156 24.953125 11.171875 24.953125 10.015625 C 24.953125 7.941406 23.515625 6.90625 20.640625 6.90625 C 19.253906 6.90625 17.988281 7.191406 16.84375 7.765625 L 15.71875 6.21875 L 21.0625 0.953125 C 17.269531 0.609375 13.945312 -0.554688 11.09375 -2.546875 C 8.25 -4.535156 6.035156 -7.195312 4.453125 -10.53125 C 2.867188 -13.875 2.078125 -17.703125 2.078125 -22.015625 C 2.078125 -26.617188 2.953125 -30.660156 4.703125 -34.140625 C 6.460938 -37.628906 8.925781 -40.335938 12.09375 -42.265625 C 15.257812 -44.191406 18.910156 -45.15625 23.046875 -45.15625 C 26.734375 -45.15625 29.914062 -44.4375 32.59375 -43 C 35.269531 -41.5625 37.410156 -39.644531 39.015625 -37.25 C 40.628906 -34.863281 41.613281 -32.234375 41.96875 -29.359375 L 36.609375 -29.359375 C 36.492188 -30.910156 35.929688 -32.578125 34.921875 -34.359375 C 33.921875 -36.148438 32.453125 -37.675781 30.515625 -38.9375 C 28.585938 -40.207031 26.128906 -40.84375 23.140625 -40.84375 C 19.742188 -40.84375 16.878906 -39.992188 14.546875 -38.296875 C 12.210938 -36.597656 10.441406 -34.320312 9.234375 -31.46875 C 8.023438 -28.625 7.421875 -25.472656 7.421875 -22.015625 C 7.421875 -18.617188 8.023438 -15.492188 9.234375 -12.640625 C 10.441406 -9.796875 12.210938 -7.507812 14.546875 -5.78125 C 16.878906 -4.050781 19.742188 -3.1875 23.140625 -3.1875 C 26.128906 -3.1875 28.601562 -3.820312 30.5625 -5.09375 C 32.519531 -6.363281 33.988281 -7.914062 34.96875 -9.75 C 35.945312 -11.59375 36.492188 -13.351562 36.609375 -15.03125 L 41.96875 -15.03125 C 41.789062 -12.207031 40.9375 -9.597656 39.40625 -7.203125 C 37.882812 -4.816406 35.84375 -2.890625 33.28125 -1.421875 C 30.71875 0.0429688 27.738281 0.863281 24.34375 1.03125 L 20.46875 4.578125 L 20.46875 4.75 C 23 4.289062 25.066406 4.550781 26.671875 5.53125 C 28.285156 6.507812 29.09375 7.945312 29.09375 9.84375 C 29.09375 11.851562 28.226562 13.375 26.5 14.40625 C 24.78125 15.445312 22.65625 15.96875 20.125 15.96875 Z M 20.125 15.96875 "/></g></g></g><g fill="#ffffff" fill-opacity="1"><g transform="translate(122.136666, 85.029549)"><g><path d="M 7.25 0.4375 C 6.332031 0.4375 5.46875 0.105469 4.65625 -0.546875 C 3.851562 -1.210938 3.453125 -2.15625 3.453125 -3.375 C 3.453125 -4.519531 3.851562 -5.421875 4.65625 -6.078125 C 5.46875 -6.742188 6.332031 -7.078125 7.25 -7.078125 C 8.226562 -7.078125 9.101562 -6.742188 9.875 -6.078125 C 10.65625 -5.421875 11.046875 -4.519531 11.046875 -3.375 C 11.046875 -2.15625 10.65625 -1.210938 9.875 -0.546875 C 9.101562 0.105469 8.226562 0.4375 7.25 0.4375 Z M 7.25 0.4375 "/></g></g></g><g fill="#ffffff" fill-opacity="1"><g transform="translate(136.642516, 85.029549)"><g/></g></g><g fill="#ffffff" fill-opacity="1"><g transform="translate(155.206556, 85.029549)"><g><path d="M 0.515625 0 L 23.828125 -61.734375 L 30.21875 -61.734375 L 53.625 0 L 47.65625 0 L 40.578125 -19 L 13.5625 -19 L 6.46875 0 Z M 15.109375 -23.75 L 39.03125 -23.75 L 27.109375 -55.78125 L 26.9375 -55.78125 Z M 15.109375 -23.75 "/></g></g></g><g fill="#ffffff" fill-opacity="1"><g transform="translate(209.344465, 85.029549)"><g><path d="M 4.3125 0 L 4.3125 -44.375 L 9.671875 -44.375 L 9.671875 -36.703125 L 9.84375 -36.703125 C 10.757812 -38.140625 11.894531 -39.488281 13.25 -40.75 C 14.601562 -42.019531 16.316406 -43.070312 18.390625 -43.90625 C 20.460938 -44.738281 22.992188 -45.15625 25.984375 -45.15625 C 28.460938 -45.15625 30.722656 -44.632812 32.765625 -43.59375 C 34.804688 -42.5625 36.445312 -41.023438 37.6875 -38.984375 C 38.925781 -36.941406 39.546875 -34.394531 39.546875 -31.34375 L 39.546875 0 L 34.109375 0 L 34.109375 -28.921875 C 34.109375 -31.109375 33.804688 -33.09375 33.203125 -34.875 C 32.597656 -36.664062 31.53125 -38.078125 30 -39.109375 C 28.476562 -40.148438 26.304688 -40.671875 23.484375 -40.671875 C 20.609375 -40.671875 18.132812 -40.078125 16.0625 -38.890625 C 13.988281 -37.710938 12.40625 -36.257812 11.3125 -34.53125 C 10.21875 -32.8125 9.671875 -31.085938 9.671875 -29.359375 L 9.671875 0 Z M 4.3125 0 "/></g></g></g><g fill="#ffffff" fill-opacity="1"><g transform="translate(252.862016, 85.029549)"><g><path d="M 4.484375 0 L 4.484375 -61.734375 L 9.921875 -61.734375 L 9.921875 0 Z M 4.484375 0 "/></g></g></g><g fill="#ffffff" fill-opacity="1"><g transform="translate(267.281526, 85.029549)"><g><path d="M 16.234375 1.03125 C 11.859375 1.03125 8.375 -0.0625 5.78125 -2.25 C 3.195312 -4.4375 1.90625 -7.34375 1.90625 -10.96875 C 1.90625 -15.164062 3.285156 -18.300781 6.046875 -20.375 C 8.804688 -22.445312 12.976562 -23.941406 18.5625 -24.859375 C 20.695312 -25.265625 22.785156 -25.640625 24.828125 -25.984375 C 26.867188 -26.328125 28.566406 -26.972656 29.921875 -27.921875 C 31.273438 -28.878906 31.953125 -30.453125 31.953125 -32.640625 C 31.953125 -35.515625 30.984375 -37.640625 29.046875 -39.015625 C 27.117188 -40.398438 24.632812 -41.09375 21.59375 -41.09375 C 17.613281 -41.09375 14.585938 -40.242188 12.515625 -38.546875 C 10.441406 -36.847656 9.289062 -34.472656 9.0625 -31.421875 L 3.890625 -31.421875 C 4.054688 -33.671875 4.703125 -35.84375 5.828125 -37.9375 C 6.953125 -40.039062 8.78125 -41.769531 11.3125 -43.125 C 13.84375 -44.476562 17.269531 -45.15625 21.59375 -45.15625 C 24.632812 -45.15625 27.335938 -44.691406 29.703125 -43.765625 C 32.066406 -42.847656 33.921875 -41.296875 35.265625 -39.109375 C 36.617188 -36.921875 37.296875 -33.957031 37.296875 -30.21875 L 37.296875 -8.28125 C 37.296875 -7.25 37.367188 -6.210938 37.515625 -5.171875 C 37.660156 -4.140625 38.117188 -3.335938 38.890625 -2.765625 C 39.671875 -2.191406 41.007812 -2.078125 42.90625 -2.421875 L 42.90625 0.09375 C 41.46875 0.488281 40.085938 0.6875 38.765625 0.6875 C 36.296875 0.6875 34.554688 0.0820312 33.546875 -1.125 C 32.535156 -2.332031 32.03125 -4.175781 32.03125 -6.65625 L 31.859375 -6.65625 C 30.191406 -4 28.003906 -2.050781 25.296875 -0.8125 C 22.585938 0.414062 19.566406 1.03125 16.234375 1.03125 Z M 17.953125 -3.015625 C 21.179688 -3.015625 23.816406 -3.617188 25.859375 -4.828125 C 27.898438 -6.046875 29.425781 -7.515625 30.4375 -9.234375 C 31.445312 -10.960938 31.953125 -12.632812 31.953125 -14.25 L 31.953125 -25.390625 C 31.203125 -24.234375 29.773438 -23.394531 27.671875 -22.875 C 25.566406 -22.363281 23.078125 -21.90625 20.203125 -21.5 C 16.347656 -20.976562 13.222656 -20.023438 10.828125 -18.640625 C 8.441406 -17.265625 7.25 -15.050781 7.25 -12 C 7.25 -9.007812 8.179688 -6.765625 10.046875 -5.265625 C 11.921875 -3.765625 14.554688 -3.015625 17.953125 -3.015625 Z M 17.953125 -3.015625 "/></g></g></g><g fill="#ffffff" fill-opacity="1"><g transform="translate(312.180624, 85.029549)"><g><path d="M 7.25 0.4375 C 6.332031 0.4375 5.46875 0.105469 4.65625 -0.546875 C 3.851562 -1.210938 3.453125 -2.15625 3.453125 -3.375 C 3.453125 -4.519531 3.851562 -5.421875 4.65625 -6.078125 C 5.46875 -6.742188 6.332031 -7.078125 7.25 -7.078125 C 8.226562 -7.078125 9.101562 -6.742188 9.875 -6.078125 C 10.65625 -5.421875 11.046875 -4.519531 11.046875 -3.375 C 11.046875 -2.15625 10.65625 -1.210938 9.875 -0.546875 C 9.101562 0.105469 8.226562 0.4375 7.25 0.4375 Z M 7.25 0.4375 "/></g></g></g><g fill="#ffffff" fill-opacity="1"><g transform="translate(326.686474, 85.029549)"><g/></g></g><g fill="#ffffff" fill-opacity="1"><g transform="translate(345.25053, 85.029549)"><g><path d="M 30.90625 1.03125 C 24.863281 1.03125 19.753906 -0.363281 15.578125 -3.15625 C 11.410156 -5.945312 8.242188 -9.742188 6.078125 -14.546875 C 3.921875 -19.359375 2.84375 -24.785156 2.84375 -30.828125 C 2.84375 -36.753906 3.953125 -42.132812 6.171875 -46.96875 C 8.390625 -51.800781 11.65625 -55.640625 15.96875 -58.484375 C 20.289062 -61.335938 25.585938 -62.765625 31.859375 -62.765625 C 36.460938 -62.765625 40.519531 -61.957031 44.03125 -60.34375 C 47.539062 -58.738281 50.390625 -56.484375 52.578125 -53.578125 C 54.765625 -50.671875 56.175781 -47.289062 56.8125 -43.4375 L 50.859375 -43.4375 C 50.335938 -46.132812 49.242188 -48.578125 47.578125 -50.765625 C 45.910156 -52.953125 43.75 -54.675781 41.09375 -55.9375 C 38.445312 -57.207031 35.367188 -57.84375 31.859375 -57.84375 C 26.679688 -57.84375 22.378906 -56.601562 18.953125 -54.125 C 15.523438 -51.65625 12.976562 -48.375 11.3125 -44.28125 C 9.644531 -40.195312 8.8125 -35.710938 8.8125 -30.828125 C 8.8125 -25.816406 9.613281 -21.28125 11.21875 -17.21875 C 12.832031 -13.164062 15.320312 -9.941406 18.6875 -7.546875 C 22.0625 -5.160156 26.304688 -3.96875 31.421875 -3.96875 C 35.628906 -3.96875 39.242188 -4.898438 42.265625 -6.765625 C 45.285156 -8.640625 47.613281 -11.273438 49.25 -14.671875 C 50.894531 -18.066406 51.71875 -22.007812 51.71875 -26.5 L 32.71875 -26.5 L 32.71875 -31.171875 L 57.765625 -31.171875 L 57.765625 0 L 53.359375 0 L 52.671875 -14.25 L 52.5 -14.25 C 51.75 -11.425781 50.4375 -8.863281 48.5625 -6.5625 C 46.695312 -4.257812 44.296875 -2.414062 41.359375 -1.03125 C 38.421875 0.339844 34.9375 1.03125 30.90625 1.03125 Z M 30.90625 1.03125 "/></g></g></g><g fill="#ffffff" fill-opacity="1"><g transform="translate(407.504788, 85.029549)"><g><path d="M 23.046875 1.03125 C 18.734375 1.03125 15.007812 0.0664062 11.875 -1.859375 C 8.738281 -3.785156 6.320312 -6.472656 4.625 -9.921875 C 2.925781 -13.378906 2.078125 -17.410156 2.078125 -22.015625 C 2.078125 -26.796875 2.9375 -30.910156 4.65625 -34.359375 C 6.382812 -37.816406 8.800781 -40.476562 11.90625 -42.34375 C 15.019531 -44.21875 18.648438 -45.15625 22.796875 -45.15625 C 27.285156 -45.15625 30.984375 -44.132812 33.890625 -42.09375 C 36.796875 -40.050781 38.953125 -37.257812 40.359375 -33.71875 C 41.773438 -30.175781 42.484375 -26.101562 42.484375 -21.5 L 7.421875 -21.5 C 7.421875 -15.738281 8.859375 -11.242188 11.734375 -8.015625 C 14.617188 -4.796875 18.363281 -3.1875 22.96875 -3.1875 C 25.957031 -3.1875 28.375 -3.75 30.21875 -4.875 C 32.0625 -6 33.484375 -7.351562 34.484375 -8.9375 C 35.492188 -10.519531 36.171875 -11.972656 36.515625 -13.296875 L 41.875 -13.296875 C 40.894531 -9.148438 38.847656 -5.722656 35.734375 -3.015625 C 32.628906 -0.316406 28.398438 1.03125 23.046875 1.03125 Z M 7.421875 -25.21875 L 37.125 -25.21875 C 37.125 -27.976562 36.601562 -30.566406 35.5625 -32.984375 C 34.53125 -35.398438 32.945312 -37.351562 30.8125 -38.84375 C 28.6875 -40.34375 26.015625 -41.09375 22.796875 -41.09375 C 19.628906 -41.09375 16.90625 -40.375 14.625 -38.9375 C 12.351562 -37.5 10.597656 -35.570312 9.359375 -33.15625 C 8.128906 -30.738281 7.484375 -28.09375 7.421875 -25.21875 Z M 7.421875 -25.21875 "/></g></g></g><g fill="#ffffff" fill-opacity="1"><g transform="translate(451.88581, 85.029549)"><g><path d="M 4.484375 0 L 4.484375 -61.734375 L 9.921875 -61.734375 L 9.921875 0 Z M 4.484375 0 "/></g></g></g><g fill="#ffffff" fill-opacity="1"><g transform="translate(466.305288, 85.029549)"><g><path d="M 5.1875 -53.875 C 3.976562 -53.875 3.054688 -54.25 2.421875 -55 C 1.785156 -55.75 1.46875 -56.613281 1.46875 -57.59375 C 1.46875 -58.570312 1.785156 -59.429688 2.421875 -60.171875 C 3.054688 -60.921875 3.976562 -61.296875 5.1875 -61.296875 C 6.394531 -61.296875 7.328125 -60.921875 7.984375 -60.171875 C 8.648438 -59.429688 8.984375 -58.570312 8.984375 -57.59375 C 8.984375 -56.613281 8.648438 -55.75 7.984375 -55 C 7.328125 -54.25 6.394531 -53.875 5.1875 -53.875 Z M 2.59375 0 L 2.59375 -44.375 L 8.03125 -44.375 L 8.03125 0 Z M 2.59375 0 "/></g></g></g><g fill="#ffffff" fill-opacity="1"><g transform="translate(476.925646, 85.029549)"><g><path d="M 18.734375 15.96875 C 17.117188 15.96875 15.578125 15.765625 14.109375 15.359375 C 12.648438 14.960938 11.34375 14.421875 10.1875 13.734375 L 11.484375 11.828125 C 13.554688 12.921875 15.800781 13.46875 18.21875 13.46875 C 19.71875 13.46875 20.984375 13.179688 22.015625 12.609375 C 23.054688 12.035156 23.578125 11.171875 23.578125 10.015625 C 23.578125 7.941406 22.132812 6.90625 19.25 6.90625 C 17.875 6.90625 16.609375 7.191406 15.453125 7.765625 L 14.328125 6.21875 L 19.6875 1.03125 C 13.582031 0.75 9.078125 -0.8125 6.171875 -3.65625 C 3.265625 -6.507812 1.695312 -9.984375 1.46875 -14.078125 L 6.65625 -14.078125 C 6.882812 -10.796875 8.207031 -8.128906 10.625 -6.078125 C 13.039062 -4.035156 16.519531 -3.015625 21.0625 -3.015625 C 24.289062 -3.015625 27 -3.789062 29.1875 -5.34375 C 31.375 -6.90625 32.46875 -8.894531 32.46875 -11.3125 C 32.46875 -13.726562 31.832031 -15.523438 30.5625 -16.703125 C 29.300781 -17.890625 27.585938 -18.796875 25.421875 -19.421875 C 23.265625 -20.054688 20.894531 -20.691406 18.3125 -21.328125 C 15.425781 -22.078125 12.816406 -22.867188 10.484375 -23.703125 C 8.160156 -24.535156 6.304688 -25.695312 4.921875 -27.1875 C 3.535156 -28.6875 2.84375 -30.734375 2.84375 -33.328125 C 2.84375 -36.835938 4.28125 -39.6875 7.15625 -41.875 C 10.039062 -44.0625 14.046875 -45.15625 19.171875 -45.15625 C 23.085938 -45.15625 26.253906 -44.519531 28.671875 -43.25 C 31.085938 -41.988281 32.910156 -40.363281 34.140625 -38.375 C 35.378906 -36.394531 36.113281 -34.3125 36.34375 -32.125 L 31.171875 -32.125 C 30.765625 -34.425781 29.640625 -36.492188 27.796875 -38.328125 C 25.960938 -40.171875 23.113281 -41.09375 19.25 -41.09375 C 17.40625 -41.09375 15.632812 -40.832031 13.9375 -40.3125 C 12.238281 -39.800781 10.867188 -38.984375 9.828125 -37.859375 C 8.796875 -36.734375 8.28125 -35.3125 8.28125 -33.59375 C 8.28125 -31.863281 8.859375 -30.507812 10.015625 -29.53125 C 11.171875 -28.550781 12.769531 -27.769531 14.8125 -27.1875 C 16.851562 -26.613281 19.171875 -26.015625 21.765625 -25.390625 C 24.867188 -24.640625 27.628906 -23.785156 30.046875 -22.828125 C 32.460938 -21.878906 34.359375 -20.570312 35.734375 -18.90625 C 37.117188 -17.238281 37.8125 -14.910156 37.8125 -11.921875 C 37.8125 -8.234375 36.488281 -5.238281 33.84375 -2.9375 C 31.195312 -0.632812 27.570312 0.660156 22.96875 0.953125 L 19.078125 4.578125 L 19.078125 4.75 C 21.609375 4.289062 23.679688 4.550781 25.296875 5.53125 C 26.910156 6.507812 27.71875 7.945312 27.71875 9.84375 C 27.71875 11.851562 26.851562 13.375 25.125 14.40625 C 23.394531 15.445312 21.265625 15.96875 18.734375 15.96875 Z M 18.734375 15.96875 "/></g></g></g><g fill="#ffffff" fill-opacity="1"><g transform="translate(515.262499, 85.029549)"><g><path d="M 16.84375 0.4375 C 14.019531 0.4375 11.800781 -0.4375 10.1875 -2.1875 C 8.570312 -3.945312 7.765625 -7.132812 7.765625 -11.75 L 7.765625 -40.0625 L 1.375 -40.0625 L 1.375 -44.375 L 7.765625 -44.375 L 7.765625 -58.203125 L 13.203125 -58.203125 L 13.203125 -44.375 L 22.453125 -44.375 L 22.453125 -40.0625 L 13.203125 -40.0625 L 13.203125 -12.515625 C 13.203125 -10.617188 13.359375 -8.976562 13.671875 -7.59375 C 13.992188 -6.21875 14.816406 -5.226562 16.140625 -4.625 C 17.460938 -4.019531 19.566406 -3.972656 22.453125 -4.484375 L 22.453125 -0.265625 C 21.523438 -0.0234375 20.644531 0.148438 19.8125 0.265625 C 18.976562 0.378906 17.988281 0.4375 16.84375 0.4375 Z M 16.84375 0.4375 "/></g></g></g><g fill="#ffffff" fill-opacity="1"><g transform="translate(540.043343, 85.029549)"><g><path d="M 5.1875 -53.875 C 3.976562 -53.875 3.054688 -54.25 2.421875 -55 C 1.785156 -55.75 1.46875 -56.613281 1.46875 -57.59375 C 1.46875 -58.570312 1.785156 -59.429688 2.421875 -60.171875 C 3.054688 -60.921875 3.976562 -61.296875 5.1875 -61.296875 C 6.394531 -61.296875 7.328125 -60.921875 7.984375 -60.171875 C 8.648438 -59.429688 8.984375 -58.570312 8.984375 -57.59375 C 8.984375 -56.613281 8.648438 -55.75 7.984375 -55 C 7.328125 -54.25 6.394531 -53.875 5.1875 -53.875 Z M 2.59375 0 L 2.59375 -44.375 L 8.03125 -44.375 L 8.03125 0 Z M 2.59375 0 "/></g></g></g><g fill="#ffffff" fill-opacity="1"><g transform="translate(550.663701, 85.029549)"><g><path d="M 4.3125 0 L 4.3125 -44.375 L 9.671875 -44.375 L 9.671875 -35.40625 L 9.84375 -35.40625 C 10.820312 -38.21875 12.460938 -40.515625 14.765625 -42.296875 C 17.066406 -44.085938 19.6875 -44.984375 22.625 -44.984375 C 23.769531 -44.984375 24.863281 -44.894531 25.90625 -44.71875 L 25.90625 -39.984375 L 25.734375 -39.984375 C 23.023438 -40.441406 20.445312 -40.132812 18 -39.0625 C 15.550781 -38 13.550781 -36.332031 12 -34.0625 C 10.445312 -31.789062 9.671875 -29.039062 9.671875 -25.8125 L 9.671875 0 Z M 4.3125 0 "/></g></g></g><g fill="#ffffff" fill-opacity="1"><g transform="translate(572.335871, 85.029549)"><g><path d="M 7.25 0.4375 C 6.332031 0.4375 5.46875 0.105469 4.65625 -0.546875 C 3.851562 -1.210938 3.453125 -2.15625 3.453125 -3.375 C 3.453125 -4.519531 3.851562 -5.421875 4.65625 -6.078125 C 5.46875 -6.742188 6.332031 -7.078125 7.25 -7.078125 C 8.226562 -7.078125 9.101562 -6.742188 9.875 -6.078125 C 10.65625 -5.421875 11.046875 -4.519531 11.046875 -3.375 C 11.046875 -2.15625 10.65625 -1.210938 9.875 -0.546875 C 9.101562 0.105469 8.226562 0.4375 7.25 0.4375 Z M 7.25 0.4375 "/></g></g></g></g></g><g clip-path="url(#dd6f07bae6)"><path fill="#ffffff" d="M 781.375 314.667969 C 781.375 314.667969 784.214844 330.539062 789.390625 335.136719 C 794.570312 339.734375 812.441406 342.253906 812.441406 342.253906 C 812.441406 342.253906 794.570312 344.773438 789.390625 349.371094 C 784.214844 353.96875 781.375 369.839844 781.375 369.839844 C 781.375 369.839844 778.539062 353.96875 773.359375 349.371094 C 768.183594 344.773438 750.308594 342.253906 750.308594 342.253906 C 750.308594 342.253906 768.183594 339.734375 773.359375 335.136719 C 778.539062 330.539062 781.375 314.667969 781.375 314.667969 Z M 781.375 314.667969 " fill-opacity="1" fill-rule="evenodd"/></g></svg>