<svg xmlns="http://www.w3.org/2000/svg" viewBox="165 405 940 250" fill="none">
  <path d="M0 0 C8.44569538 8.8854174 13.25 20.70620768 13.25 32.9375 C-0.28 32.9375 -13.81 32.9375 -27.75 32.9375 C-29.4 29.6375 -31.05 26.3375 -32.75 22.9375 C-38.99749064 16.55708402 -46.07307114 15.04687305 -54.75 14.9375 C-61.63951221 15.48414895 -67.43556892 16.34123528 -72.75 20.9375 C-74.62934042 24.69618084 -74.03604066 28.76733365 -73.0625 32.75 C-70.39119777 37.20217038 -63.69807257 38.03019229 -58.9375 39.625 C-58.16486816 39.88482666 -57.39223633 40.14465332 -56.59619141 40.41235352 C-51.01015482 42.26173259 -45.38519304 43.91290721 -39.72045898 45.50317383 C-20.50669239 50.91467004 -2.01673567 57.11454822 10.25 73.9375 C16.34502307 85.52141126 17.17964535 99.35261867 13.625 111.875 C11.64147765 117.55125012 8.89740272 122.1878602 5.25 126.9375 C4.6725 127.80375 4.095 128.67 3.5 129.5625 C-9.35081947 143.12725388 -27.93625912 146.77502924 -45.87231445 147.29101562 C-66.60885826 147.47838762 -89.45576696 143.05820156 -105.19921875 128.5546875 C-115.74198602 117.56046672 -119.75 106.02127444 -119.75 90.9375 C-106.55 90.9375 -93.35 90.9375 -79.75 90.9375 C-78.76 94.2375 -77.77 97.5375 -76.75 100.9375 C-72.64819934 107.45212457 -67.35691534 109.62428068 -60.21484375 111.66015625 C-51.45023351 113.60928165 -41.35462103 113.981446 -33.0625 110.125 C-29.123673 107.66917419 -29.123673 107.66917419 -26.75 103.9375 C-26.03668558 98.35730306 -26.03668558 98.35730306 -28.39746094 93.49267578 C-35.70665437 85.55390259 -50.12335204 83.1838485 -60.22323608 80.29849243 C-80.21609316 74.54239205 -100.6433804 68.58136762 -111.55859375 49.33203125 C-116.99879468 38.39811921 -117.44101597 25.68857541 -114.0625 14 C-109.66995539 1.48048262 -102.15767563 -6.96806131 -90.17504883 -12.7565918 C-61.97358499 -25.58842703 -22.99237404 -20.93393515 0 0 Z" fill="#00272c" transform="translate(298.75,497.0625)"/>
  <path d="M0 0 C13.53 0 27.06 0 41 0 C44.04532057 7.30876937 47.00559514 14.52304036 49.65234375 21.96484375 C50.15120338 23.35505234 50.15120338 23.35505234 50.66014099 24.77334595 C51.37892308 26.77754186 52.09631623 28.78223636 52.81243896 30.78738403 C53.96742081 34.02127681 55.12605651 37.25384018 56.28564453 40.48608398 C57.53308081 43.96337813 58.78026754 47.44075994 60.02636719 50.91853333 C64.65004751 63.82248564 69.29861582 76.71743484 73.94992065 89.6114502 C75.13308365 92.89145665 76.31552535 96.1717226 77.49775791 99.45206451 C81.66682635 111.01931562 85.83877501 122.58537899 90.0625 134.1328125 C90.50307236 135.33837044 90.50307236 135.33837044 90.95254517 136.56828308 C92.24819993 140.11238705 93.5471397 143.6552103 94.85302734 147.19555664 C95.2805127 148.36207764 95.70799805 149.52859863 96.1484375 150.73046875 C96.51114746 151.71426514 96.87385742 152.69806152 97.24755859 153.71166992 C98 156 98 156 98 158 C84.47 158 70.94 158 57 158 C55.535625 153.4625 54.07125 148.925 52.5625 144.25 C52.10174072 142.82461914 51.64098145 141.39923828 51.16625977 139.93066406 C50.80330811 138.80370117 50.44035645 137.67673828 50.06640625 136.515625 C49.69459229 135.36352539 49.32277832 134.21142578 48.93969727 133.02441406 C48.21895367 130.704702 47.58914371 128.35657486 47 126 C29.51 125.67 12.02 125.34 -6 125 C-6.99 128.96 -7.98 132.92 -9 137 C-10.19311201 140.7709493 -11.40658853 144.51072735 -12.6875 148.25 C-13.780625 151.4675 -14.87375 154.685 -16 158 C-29.53 158 -43.06 158 -57 158 C-53.62488133 146.74960444 -53.62488133 146.74960444 -51.89379883 141.96337891 C-51.50460266 140.88321503 -51.11540649 139.80305115 -50.7144165 138.69015503 C-50.29947937 137.54716949 -49.88454224 136.40418396 -49.45703125 135.2265625 C-49.01639343 134.00615265 -48.57575562 132.7857428 -48.12176514 131.52835083 C-46.93458108 128.2406243 -45.74402862 124.95412739 -44.55272293 121.66789246 C-43.30471418 118.22359539 -42.05969608 114.77821733 -40.81420898 111.33300781 C-37.88055906 103.22040182 -34.94088778 95.10998451 -32 87 C-31.5970874 85.88854614 -31.1941748 84.77709229 -30.77905273 83.63195801 C-26.191033 70.97621851 -21.59051207 58.32507571 -16.97705078 45.67858887 C-15.9452797 42.84998406 -14.91402767 40.02119033 -13.8828125 37.19238281 C-12.11504066 32.34375113 -10.3457168 27.49568842 -8.57516479 22.64807129 C-7.90580761 20.81511018 -7.23679516 18.98202314 -6.56814575 17.14880371 C-5.6520786 14.63783218 -4.73447259 12.12742865 -3.81640625 9.6171875 C-3.40829712 8.49728928 -3.40829712 8.49728928 -2.99194336 7.35476685 C-1.11444516 2.22889033 -1.11444516 2.22889033 0 0 Z M20 38 C17.71346421 45.32991873 15.43570543 52.66252251 13.1640625 59.99707031 C12.39004693 62.49249132 11.61401538 64.98728795 10.8359375 67.48144531 C9.71866246 71.06413595 8.60862843 74.64900075 7.5 78.234375 C7.15001953 79.35116638 6.80003906 80.46795776 6.43945312 81.61859131 C6.11912109 82.65936829 5.79878906 83.70014526 5.46875 84.77246094 C5.18451172 85.68735291 4.90027344 86.60224487 4.60742188 87.54486084 C3.83988862 90.22562708 3.83988862 90.22562708 4 94 C15.22 94 26.44 94 38 94 C35.25089656 83.91995406 32.33826508 73.91129585 29.3293457 63.90844727 C28.73019613 61.91253949 28.1338833 59.91577815 27.5402832 57.91821289 C26.67754647 55.01520439 25.80655533 52.11479154 24.93359375 49.21484375 C24.66896835 48.31910141 24.40434296 47.42335907 24.13169861 46.50047302 C23.88126297 45.67523636 23.63082733 44.84999969 23.37280273 43.99975586 C23.15534897 43.27348495 22.9378952 42.54721405 22.71385193 41.79893494 C22.05421532 39.78992136 22.05421532 39.78992136 20 38 Z" fill="#00272c" transform="translate(867,482)"/>
  <path d="M0 0 C1.30450493 1.04669763 2.59662941 2.10903921 3.875 3.1875 C4.75285156 3.88746094 4.75285156 3.88746094 5.6484375 4.6015625 C17.38128757 14.95407727 22.88151608 33.03687015 23.875 48.1875 C23.875 52.1475 23.875 56.1075 23.875 60.1875 C-2.855 60.1875 -29.585 60.1875 -57.125 60.1875 C-55.20116312 68.84476594 -53.9282381 73.74647505 -47.5 79.5625 C-39.28247635 83.51908546 -30.79479116 84.12805019 -22.125 81.1875 C-18.11542973 78.90204495 -16.21011358 76.35772716 -14.125 72.1875 C-2.245 72.1875 9.635 72.1875 21.875 72.1875 C20.0531424 84.94050318 13.63579145 94.12202707 3.4609375 102.07421875 C-4.87484762 107.46396906 -15.19517314 110.7876412 -25.125 111.1875 C-26.28515625 111.2390625 -27.4453125 111.290625 -28.640625 111.34375 C-46.0215297 111.86459842 -62.08901638 108.38586716 -75.625 96.8125 C-86.47566066 86.29925759 -92.94984451 72.3733142 -93.42578125 57.26171875 C-93.44022756 55.13285793 -93.44395512 53.00390005 -93.4375 50.875 C-93.45361328 49.82376953 -93.46972656 48.77253906 -93.48632812 47.68945312 C-93.49602689 31.90955887 -88.27924609 17.24143547 -77.375 5.6875 C-56.99718426 -12.95603355 -22.92568055 -16.51351702 0 0 Z M-52.5 22.625 C-56.74730637 28.06109049 -57.125 30.9911397 -57.125 38.1875 C-42.275 38.1875 -27.425 38.1875 -12.125 38.1875 C-13.14766236 28.9835388 -14.18775603 25.02378899 -20.5625 18.8125 C-31.04694446 12.1638279 -44.17368403 13.45804636 -52.5 22.625 Z" fill="#00272c" transform="translate(746.125,532.8125)"/>
  <path d="M0 0 C3.54263005 2.8076665 6.79948064 5.81059355 10 9 C10.5775 9.55429687 11.155 10.10859375 11.75 10.6796875 C21.96888524 21.37758299 25.01725159 37.21987603 25.375 51.5 C24.93257907 68.47126692 20.24215761 83.52652479 8.24609375 95.88671875 C-5.40125146 108.7270905 -22.17900262 112.82650472 -40.58984375 112.2890625 C-56.2999272 111.4760597 -71.31662195 105.83833784 -82 94 C-82.46921875 93.53464844 -82.9384375 93.06929687 -83.421875 92.58984375 C-94.33263375 81.14479527 -97.49056798 64.63919047 -97.35595703 49.33496094 C-96.83371562 32.56986793 -90.89827645 18.6005207 -80 6 C-58.90742226 -11.77498614 -23.58394238 -15.78924956 0 0 Z M-53.4296875 25 C-58.01207422 30.83627363 -60.5914784 38.6466112 -61 46 C-61.05027344 46.71027344 -61.10054688 47.42054688 -61.15234375 48.15234375 C-61.56076692 58.23222768 -59.93110348 68.98360278 -53.71875 77.16015625 C-48.53581176 82.70825605 -43.3079602 84.77652957 -35.7421875 85.1328125 C-29.60299501 84.83547269 -23.90952341 82.88638851 -19.34375 78.625 C-11.08910799 68.64264222 -10.36187456 56.007311 -11.46484375 43.62109375 C-12.72069914 35.12344451 -15.45162898 27.77312307 -22 22 C-31.68636771 15.24206904 -45.00973163 17.16748291 -53.4296875 25 Z" fill="#00272c" transform="translate(539,532)"/>
  <path d="M0 0 C13.10279414 9.85643022 17.8482982 21.24149098 21 37 C9.12 37 -2.76 37 -15 37 C-16.32 33.7 -17.64 30.4 -19 27 C-21.58785272 22.65610436 -24.23732712 21.02050417 -28.92578125 19.50390625 C-35.01781076 18.02392168 -40.60972133 18.91045003 -46 22 C-52.53492739 27.56351926 -54.86798931 34.72530243 -56 43 C-56.68193822 55.18308856 -56.96096173 68.70038344 -48.6015625 78.48046875 C-44.36430306 82.50069783 -39.72317084 83.70899131 -34 84 C-28.42870206 83.3862942 -23.85069774 82.29077748 -20 78 C-17.71064609 73.78603671 -16.16286535 69.65146138 -15 65 C-3.12 65 8.76 65 21 65 C18.2049043 81.77057419 13.88775422 92.46125732 0.51953125 102.9453125 C-13.09344799 111.78375579 -31.41772179 114.29966668 -47.24609375 111.28125 C-63.17865784 107.76520111 -75.36002447 100.52440263 -84.46875 86.66796875 C-93.81361777 70.38596701 -95.87533978 50.5713517 -91.375 32.375 C-87.50481414 18.30604444 -78.74424014 5.49003587 -66 -2 C-45.80733571 -11.93036504 -19.35518954 -12.85971915 0 0 Z" fill="#00272c" transform="translate(416,532)"/>
  <path d="M0 0 C13.53 0 27.06 0 41 0 C41 52.14 41 104.28 41 158 C27.47 158 13.94 158 0 158 C0 105.86 0 53.72 0 0 Z" fill="#00272c" transform="translate(975,482)"/>
  <path d="M0 0 C0 10.56 0 21.12 0 32 C-3.63 32 -7.26 32 -11 32 C-19.29384919 33.82060104 -26.9615029 36.46140455 -31.859375 43.77734375 C-37.0464707 53.57107443 -37.15711177 62.72889711 -37.31640625 73.59375 C-37.33718735 74.78101685 -37.35796844 75.96828369 -37.37937927 77.19152832 C-37.44443855 80.96096352 -37.5035559 84.73046471 -37.5625 88.5 C-37.60572675 91.06511082 -37.64934233 93.63021512 -37.69335938 96.1953125 C-37.80080201 102.46347521 -37.90019971 108.73169237 -38 115 C-49.88 115 -61.76 115 -74 115 C-74 77.38 -74 39.76 -74 1 C-62.12 1 -50.24 1 -38 1 C-37.505 8.92 -37.505 8.92 -37 17 C-36.175 15.63875 -35.35 14.2775 -34.5 12.875 C-29.93296237 6.07257393 -24.32735934 1.79243668 -16.44140625 -0.5390625 C-10.98024062 -1.57013057 -5.29246868 -1.76415623 0 0 Z" fill="#00272c" transform="translate(649,525)"/>
  <path d="M0 0 C2.65617358 3.98426037 3.67584252 8.28454994 4.96875 12.84375 C6.58820311 18.2965921 8.42812794 23.76121541 12.83984375 27.6015625 C21.98871517 32.06525768 32.10304986 33.87610303 42 36 C38.76803066 37.72863422 35.70424858 38.58775128 32.1105957 39.34179688 C19.13768358 41.66024855 19.13768358 41.66024855 9.20703125 49.49609375 C5.22802864 56.89409119 3.03849059 64.89400212 1 73 C0.01 72.505 0.01 72.505 -1 72 C-1.70694138 69.64451884 -2.31349377 67.32753745 -2.875 64.9375 C-4.95672888 56.68754123 -6.76018638 50.09128946 -14 45 C-22.628981 41.15400215 -31.77167241 38.88552208 -41 37 C-37.43173763 34.62115842 -33.99378094 33.9963742 -29.875 33.125 C-17.25619242 30.43527278 -17.25619242 30.43527278 -8 22 C-4.49933279 14.98874867 -2.05394784 7.54784083 0 0 Z" fill="#00272c" transform="translate(1042,420)"/>
</svg>
